HIERARCHY
ROOT Pelvis
{
	OFFSET 0.000000 0.000000 0.000000
	CHANNELS 6 Xposition Yposition Zposition Xrotation Yrotation Zrotation
	JOINT LeftUpLeg_virtual
	{
		OFFSET 0.000000 0.000000 0.000000
		CHANNELS 3 Xrotation Yrotation Zrotation
		JOINT LeftUpLeg
		{
			OFFSET 18.735201 -5.666702 -4.541200
			CHANNELS 3 Xrotation Yrotation Zrotation
			JOINT LeftLeg
			{
				OFFSET -0.021200 -31.938179 0.493100
				CHANNELS 3 Xrotation Yrotation Zrotation
				JOINT LeftFoot
				{
					OFFSET 0.021200 -31.938179 -4.336299
					CHANNELS 3 Xrotation Yrotation Zrotation
					JOINT LeftToeBase
					{
						OFFSET 0.943001 -26.722000 15.023500
						CHANNELS 3 Xrotation Yrotation Zrotation
						End Site
						{
							OFFSET 0 0 0
						}
					}
				}
			}
		}
	}
	JOINT RightUpLeg_virtual
	{
		OFFSET 0.000000 0.000000 0.000000
		CHANNELS 3 Xrotation Yrotation Zrotation
		JOINT RightUpLeg
		{
			OFFSET -18.735201 -5.666702 -4.541200
			CHANNELS 3 Xrotation Yrotation Zrotation
			JOINT RightLeg
			{
				OFFSET 0.018946 -31.938133 0.493100
				CHANNELS 3 Xrotation Yrotation Zrotation
				JOINT RightFoot
				{
					OFFSET -0.018946 -31.938126 -4.336299
					CHANNELS 3 Xrotation Yrotation Zrotation
					JOINT RightToeBase
					{
						OFFSET -0.943001 -26.722004 15.023500
						CHANNELS 3 Xrotation Yrotation Zrotation
						End Site
						{
							OFFSET 0 0 0
						}
					}
				}
			}
		}
	}
	JOINT Hips_virtual
	{
		OFFSET 0.000000 0.000000 0.000000
		CHANNELS 3 Xrotation Yrotation Zrotation
		JOINT Hips
		{
			OFFSET -0.000000 -0.000000 -0.000000
			CHANNELS 3 Xrotation Yrotation Zrotation
			JOINT Spine
			{
				OFFSET 0.000000 10.199997 -0.299500
				CHANNELS 3 Xrotation Yrotation Zrotation
				JOINT Spine1
				{
					OFFSET 0.000000 11.900002 -1.516600
					CHANNELS 3 Xrotation Yrotation Zrotation
					JOINT Spine2
					{
						OFFSET 0.000000 13.600006 -2.842500
						CHANNELS 3 Xrotation Yrotation Zrotation
						JOINT Neck_virtual
						{
							OFFSET 0.000000 0.000000 0.000000
							CHANNELS 3 Xrotation Yrotation Zrotation
							JOINT Neck
							{
								OFFSET 0.000000 9.624100 -2.890100
								CHANNELS 3 Xrotation Yrotation Zrotation
								JOINT Head
								{
									OFFSET 0.000000 14.068802 -1.351900
									CHANNELS 3 Xrotation Yrotation Zrotation
									End Site
									{
										OFFSET 0 0 0
									}
								}
							}
						}
						JOINT LeftShoulder_virtual
						{
							OFFSET 0.000000 0.000000 0.000000
							CHANNELS 3 Xrotation Yrotation Zrotation
							JOINT LeftShoulder
							{
								OFFSET 15.263000 10.923401 -0.547700
								CHANNELS 3 Xrotation Yrotation Zrotation
								JOINT LeftArm
								{
									OFFSET 25.438599 -2.830597 -13.032500
									CHANNELS 3 Xrotation Yrotation Zrotation
									JOINT LeftForeArm
									{
										OFFSET 29.960503 0.000000 0.000000
										CHANNELS 3 Xrotation Yrotation Zrotation
										JOINT LeftHand
										{
											OFFSET 27.849251 0.000000 0.000000
											CHANNELS 3 Xrotation Yrotation Zrotation
											End Site
											{
												OFFSET 0 0 0
											}
										}
									}
								}
							}
						}
						JOINT RightShoulder_virtual
						{
							OFFSET 0.000000 0.000000 0.000000
							CHANNELS 3 Xrotation Yrotation Zrotation
							JOINT RightShoulder
							{
								OFFSET -15.263000 10.923401 -0.547700
								CHANNELS 3 Xrotation Yrotation Zrotation
								JOINT RightArm
								{
									OFFSET -25.438599 -2.830597 -13.032500
									CHANNELS 3 Xrotation Yrotation Zrotation
									JOINT RightForeArm
									{
										OFFSET -29.960503 0.000000 0.000000
										CHANNELS 3 Xrotation Yrotation Zrotation
										JOINT RightHand
										{
											OFFSET -27.849251 0.000000 0.000000
											CHANNELS 3 Xrotation Yrotation Zrotation
											End Site
											{
												OFFSET 0 0 0
											}
										}
									}
								}
							}
						}
					}
				}
			}
		}
	}
}
MOTION
Frames: 11
Frame Time: 0.03333333
-1.165317 79.134567 3.877239 0.000000 0.000000 0.000000 8.122743 -10.761235 3.218614 -58.689247 -1.035400 25.469442 54.139218 0.620283 5.926466 1.231160 1.624231 -24.065897 0.000000 0.000000 0.000000 8.122743 -10.761235 3.218614 -32.963890 5.088052 -35.330940 57.238905 2.571147 -1.051794 -23.501177 -8.779594 30.412479 0.000000 0.000000 0.000000 8.122743 -10.761235 3.218614 0.000000 0.000000 0.000000 8.209173 1.512430 -1.577917 6.501514 1.669130 -0.600553 0.000000 0.000000 0.000000 6.503122 1.665277 -0.587177 -0.696103 -0.031293 0.138982 0.000000 0.000000 0.000000 6.503122 1.665277 -0.587177 2.609672 -14.773703 -9.661122 -25.061847 -6.032406 -45.944982 -179.999978 -55.274272 -179.999964 0.000000 0.000000 0.000000 6.503122 1.665277 -0.587177 1.602767 8.845882 9.965478 3.934440 4.254979 41.144377 -0.000918 89.362036 0.000921 0.000000 0.000000 0.000000 
-1.064322 79.213837 3.974640 0.000000 0.000000 0.000000 8.208328 -10.747145 3.075221 -58.811692 -1.028835 25.437936 54.269278 0.694369 6.048087 1.103908 1.646127 -24.008856 0.000000 0.000000 0.000000 8.208328 -10.747145 3.075221 -32.765842 4.869844 -35.269727 56.656511 2.511200 -1.016425 -23.152381 -8.712221 30.529819 0.000000 0.000000 0.000000 8.208328 -10.747145 3.075221 0.000000 0.000002 0.000000 8.163316 1.500453 -1.634994 6.469513 1.666600 -0.622082 0.000000 0.000000 0.000000 6.471172 1.662709 -0.608367 -0.664362 -0.036339 0.163762 0.000000 0.000000 0.000000 6.471172 1.662709 -0.608367 2.606489 -14.776933 -9.549427 -25.079249 -5.936104 -46.237457 -179.999923 -55.052400 -179.999923 0.000000 0.000000 0.000000 6.471172 1.662709 -0.608367 1.612933 8.972300 9.892405 4.280590 4.276506 41.166609 0.003171 89.494097 -0.002711 0.000000 0.000000 0.000000 
-0.985530 79.233444 4.052071 0.000000 0.000000 0.000000 8.256112 -10.834393 2.996098 -58.792807 -1.255920 25.482565 54.521203 0.901444 5.907484 0.909758 1.683301 -23.994038 0.000000 0.000000 0.000000 8.256112 -10.834393 2.996098 -32.705244 4.806604 -35.253888 56.327986 2.573972 -1.008550 -22.907894 -8.670017 30.629143 0.000000 0.000000 0.000000 8.256112 -10.834393 2.996098 0.000000 0.000000 0.000000 8.123185 1.504969 -1.702139 6.441680 1.676748 -0.649059 0.000000 0.000000 0.000000 6.443580 1.672275 -0.634775 -0.612190 -0.033907 0.170578 0.000000 0.000000 0.000000 6.443580 1.672275 -0.634775 2.608810 -14.838625 -9.394291 -25.202290 -5.748882 -46.782271 179.999950 -55.053712 179.999950 0.000000 0.000000 0.000000 6.443580 1.672275 -0.634775 1.632843 9.221985 9.735142 4.785606 4.318987 40.998385 0.000413 89.635229 -0.000677 0.000000 0.000000 0.000000 
-0.901464 79.231392 4.104500 0.000000 0.000000 0.000000 8.284836 -10.912753 2.926759 -58.799179 -1.480763 25.482488 54.788352 1.094307 5.821383 0.730644 1.718936 -24.005519 0.000000 0.000000 0.000000 8.284836 -10.912753 2.926759 -32.730635 4.705704 -35.242495 56.092840 2.679638 -1.097112 -22.682351 -8.637173 30.744970 0.000000 0.000000 0.000000 8.284836 -10.912753 2.926759 0.000000 -0.000001 0.000000 8.099716 1.525856 -1.774425 6.424809 1.700721 -0.678535 0.000000 0.000000 0.000000 6.426779 1.696289 -0.663806 -0.559779 -0.030569 0.160417 0.000000 0.000000 0.000000 6.426779 1.696289 -0.663806 2.616664 -14.944698 -9.230449 -25.384664 -5.564492 -47.444492 -179.999978 -55.224969 -179.999978 0.000000 0.000000 0.000000 6.426779 1.696289 -0.663806 1.659449 9.536462 9.550711 5.371341 4.326787 40.644728 -0.001161 89.786020 0.001597 0.000000 0.000000 0.000000 
-0.820127 79.211746 4.133602 0.000000 0.000000 0.000000 8.341809 -10.970373 2.870037 -58.917874 -1.598790 25.409682 55.040735 1.260146 5.921015 0.593272 1.748794 -24.060965 0.000000 0.000000 0.000000 8.341809 -10.970373 2.870037 -32.805815 4.645047 -35.244671 55.935165 2.765833 -1.145818 -22.503107 -8.608223 30.828708 0.000000 0.000000 0.000000 8.341809 -10.970373 2.870037 -0.000001 0.000001 0.000000 8.096666 1.553868 -1.842953 6.421332 1.731230 -0.707043 0.000000 0.000000 0.000000 6.423001 1.728191 -0.692275 -0.526502 -0.030671 0.134632 0.000000 0.000000 0.000000 6.423001 1.728191 -0.692275 2.625891 -15.049658 -9.100768 -25.549166 -5.460096 -48.042038 -179.999950 -55.477371 -179.999950 0.000000 0.000000 0.000000 6.423001 1.728191 -0.692275 1.686765 9.841474 9.393906 5.934957 4.285739 40.135920 -0.009230 89.931475 0.005904 0.000000 0.000000 0.000000 
-0.755545 79.189003 4.137104 0.000000 0.000000 0.000000 8.396270 -11.041735 2.822545 -59.037205 -1.691047 25.366008 55.253010 1.405945 6.015164 0.492590 1.772737 -24.114661 0.000000 0.000000 0.000000 8.396270 -11.041735 2.822545 -32.902124 4.625732 -35.232312 55.834898 2.835674 -1.155842 -22.390192 -8.580522 30.849294 0.000000 0.000000 0.000000 8.396270 -11.041735 2.822545 0.000001 0.000000 0.000000 8.102875 1.572163 -1.900234 6.423404 1.753932 -0.733276 0.000000 0.000000 0.000000 6.424580 1.752988 -0.718849 -0.519906 -0.031961 0.092810 0.000000 0.000000 0.000000 6.424580 1.752988 -0.718849 2.629686 -15.096072 -9.034253 -25.618545 -5.444281 -48.427732 -179.999978 -55.706948 -179.999964 0.000000 0.000000 0.000000 6.424580 1.752988 -0.718849 1.709300 10.088483 9.269794 6.384739 4.213007 39.571845 179.977547 89.947663 -179.977383 0.000000 0.000000 0.000000 
-0.710149 79.161774 4.112511 0.000000 0.000000 0.000000 8.471767 -11.131463 2.821869 -59.153099 -1.741788 25.339531 55.389884 1.543480 6.080430 0.448698 1.781636 -24.162899 0.000000 0.000000 0.000000 8.471767 -11.131463 2.821869 -33.097164 4.665028 -35.194571 55.838081 2.889893 -1.220121 -22.314745 -8.556210 30.847477 0.000000 0.000000 0.000000 8.471767 -11.131463 2.821869 -0.000001 0.000000 0.000000 8.098537 1.570571 -1.945346 6.416199 1.759262 -0.760506 0.000000 0.000000 0.000000 6.417017 1.759785 -0.746615 -0.535375 -0.027651 0.036562 0.000000 0.000000 0.000000 6.417017 1.759785 -0.746615 2.625384 -15.066924 -9.023360 -25.565094 -5.458744 -48.564793 -179.999991 -55.846608 179.999991 0.000000 0.000000 0.000000 6.417017 1.759785 -0.746615 1.727097 10.287874 9.126470 6.677798 4.093504 39.102823 -179.999076 89.832137 179.998830 0.000000 0.000000 0.000000 
-0.692027 79.128716 4.047592 0.000000 0.000000 0.000000 8.555325 -11.216626 2.879050 -59.196362 -1.875576 25.313502 55.421630 1.762328 6.000022 0.504779 1.769062 -24.208284 0.000000 0.000000 0.000000 8.555325 -11.216626 2.879050 -33.328260 4.845509 -35.170109 55.976125 2.877806 -1.229379 -22.295240 -8.543191 30.819405 0.000000 0.000000 0.000000 8.555325 -11.216626 2.879050 0.000000 0.000000 0.000000 8.070785 1.556267 -1.982461 6.389419 1.751565 -0.792865 0.000000 0.000000 0.000000 6.390156 1.752596 -0.779570 -0.562745 -0.016410 -0.024334 0.000000 0.000000 0.000000 6.390156 1.752596 -0.779570 2.617556 -15.005101 -9.026992 -25.415523 -5.438621 -48.496928 -179.999978 -55.889529 -179.999978 0.000000 0.000000 0.000000 6.390156 1.752596 -0.779570 1.743265 10.470566 8.921174 6.826067 3.866780 38.831511 179.997819 89.664278 -179.998243 0.000000 0.000000 0.000000 
-0.702684 79.106583 3.960594 0.000000 0.000000 0.000000 8.676388 -11.238061 2.940960 -59.298487 -1.914361 25.216148 55.295043 1.917570 6.084942 0.666307 1.736268 -24.302196 0.000000 0.000000 0.000000 8.676388 -11.238061 2.940960 -33.686353 4.936605 -35.092091 56.217115 2.827774 -1.310838 -22.291270 -8.507371 30.700003 0.000000 0.000000 0.000000 8.676388 -11.238061 2.940960 0.000000 0.000000 0.000000 8.023736 1.551698 -2.005404 6.347830 1.746821 -0.825303 0.000000 0.000000 0.000000 6.348379 1.748816 -0.812545 -0.582295 -0.009483 -0.079367 0.000000 0.000000 0.000000 6.348379 1.748816 -0.812545 2.613890 -14.981776 -8.992381 -25.213170 -5.346427 -48.302794 -179.999937 -55.892575 -179.999964 0.000000 0.000000 0.000000 6.348379 1.748816 -0.812545 1.757270 10.621253 8.674228 6.905114 3.499955 38.695860 179.998939 89.345677 -179.998584 0.000000 0.000000 0.000000 
-0.766286 79.106560 3.842323 0.000000 0.000000 0.000000 8.652004 -11.351856 2.983855 -59.248811 -1.776755 25.247748 55.080951 1.936134 6.258784 0.848548 1.700443 -24.426252 0.000000 0.000000 0.000000 8.652004 -11.351856 2.983855 -33.968170 5.172183 -34.974653 56.578873 2.767564 -1.231664 -22.312263 -8.428227 30.403156 0.000000 0.000000 0.000000 8.652004 -11.351856 2.983855 0.000000 0.000000 0.000000 7.974095 1.582067 -1.984773 6.309989 1.760881 -0.836435 0.000000 0.000000 0.000000 6.309665 1.766264 -0.823854 -0.560276 -0.024431 -0.132385 0.000000 0.000000 0.000000 6.309665 1.766264 -0.823854 2.618719 -15.044113 -8.880231 -24.966715 -5.148539 -48.090829 -179.999950 -55.936377 -179.999950 0.000000 0.000000 0.000000 6.309665 1.766264 -0.823854 1.761875 10.660714 8.438529 7.045622 3.038308 38.482023 179.999295 88.779386 -179.999363 0.000000 0.000000 0.000000 
-0.888297 79.168243 3.727520 0.000000 0.000000 0.000000 8.335343 -11.433928 3.007473 -58.764660 -1.642885 25.346118 54.669097 1.885159 6.261691 1.093874 1.647285 -24.511146 0.000000 0.000000 0.000000 8.335343 -11.433928 3.007473 -33.941037 5.197657 -34.940803 56.935641 2.775717 -1.101443 -22.536815 -8.357891 29.937207 0.000000 0.000000 0.000000 8.335343 -11.433928 3.007473 -0.000001 0.000000 0.000000 7.934993 1.657125 -1.877076 6.292351 1.799221 -0.796752 0.000000 0.000000 0.000000 6.290168 1.811124 -0.783593 -0.459434 -0.067317 -0.199146 0.000000 0.000000 0.000000 6.290168 1.811124 -0.783593 2.629375 -15.179168 -8.681859 -24.608950 -4.790018 -47.982547 -179.999978 -56.029633 -179.999978 0.000000 0.000000 0.000000 6.290168 1.811124 -0.783593 1.748891 10.508260 8.221516 7.383770 2.533814 38.001803 -179.999800 87.886223 179.999786 0.000000 0.000000 0.000000 
